solid nozzle_down
facet normal -0.290262 0.956947 -0.000000
outer loop
vertex 0.006340 -0.031876 0.500000
vertex 0.012437 -0.030026 0.500000
vertex 0.012437 -0.030026 0.450000
endloop
endfacet
facet normal -0.290261 0.956948 -0.000000
outer loop
vertex 0.006340 -0.031876 0.500000
vertex 0.012437 -0.030026 0.450000
vertex 0.006340 -0.031876 0.450000
endloop
endfacet
facet normal -0.290279 -0.956942 0.000000
outer loop
vertex 0.012437 0.030026 0.500000
vertex 0.006340 0.031876 0.500000
vertex 0.006340 0.031876 0.450000
endloop
endfacet
facet normal -0.290278 -0.956942 0.000000
outer loop
vertex 0.012437 0.030026 0.500000
vertex 0.006340 0.031876 0.450000
vertex 0.012437 0.030026 0.450000
endloop
endfacet
facet normal 0.634397 -0.773008 0.000000
outer loop
vertex -0.018056 0.027023 0.500000
vertex -0.022981 0.022981 0.500000
vertex -0.022981 0.022981 0.450000
endloop
endfacet
facet normal 0.634396 -0.773008 0.000000
outer loop
vertex -0.018056 0.027023 0.500000
vertex -0.022981 0.022981 0.450000
vertex -0.018056 0.027023 0.450000
endloop
endfacet
facet normal -0.098019 0.995185 -0.000000
outer loop
vertex 0.000000 -0.032500 0.500000
vertex 0.006340 -0.031876 0.500000
vertex 0.006340 -0.031876 0.450000
endloop
endfacet
facet normal -0.098018 0.995185 -0.000000
outer loop
vertex 0.000000 -0.032500 0.500000
vertex 0.006340 -0.031876 0.450000
vertex -0.000000 -0.032500 0.450000
endloop
endfacet
facet normal -0.471385 -0.881927 0.000000
outer loop
vertex 0.018056 0.027023 0.500000
vertex 0.012437 0.030026 0.500000
vertex 0.012437 0.030026 0.450000
endloop
endfacet
facet normal -0.471385 -0.881927 0.000000
outer loop
vertex 0.018056 0.027023 0.500000
vertex 0.012437 0.030026 0.450000
vertex 0.018056 0.027023 0.450000
endloop
endfacet
facet normal 0.471385 -0.881927 0.000000
outer loop
vertex -0.012437 0.030026 0.500000
vertex -0.018056 0.027023 0.500000
vertex -0.018056 0.027023 0.450000
endloop
endfacet
facet normal 0.471386 -0.881927 0.000000
outer loop
vertex -0.012437 0.030026 0.500000
vertex -0.018056 0.027023 0.450000
vertex -0.012437 0.030026 0.450000
endloop
endfacet
facet normal 0.098017 0.995185 -0.000000
outer loop
vertex -0.006340 -0.031876 0.500000
vertex 0.000000 -0.032500 0.500000
vertex -0.000000 -0.032500 0.450000
endloop
endfacet
facet normal 0.098017 0.995185 -0.000000
outer loop
vertex -0.006340 -0.031876 0.500000
vertex -0.000000 -0.032500 0.450000
vertex -0.006340 -0.031876 0.450000
endloop
endfacet
facet normal -0.634395 -0.773009 0.000000
outer loop
vertex 0.022981 0.022981 0.500000
vertex 0.018056 0.027023 0.500000
vertex 0.018056 0.027023 0.450000
endloop
endfacet
facet normal -0.634394 -0.773010 0.000000
outer loop
vertex 0.022981 0.022981 0.500000
vertex 0.018056 0.027023 0.450000
vertex 0.022981 0.022981 0.450000
endloop
endfacet
facet normal 0.290283 -0.956941 0.000000
outer loop
vertex -0.006340 0.031876 0.500000
vertex -0.012437 0.030026 0.500000
vertex -0.012437 0.030026 0.450000
endloop
endfacet
facet normal 0.290283 -0.956941 0.000000
outer loop
vertex -0.006340 0.031876 0.500000
vertex -0.012437 0.030026 0.450000
vertex -0.006340 0.031876 0.450000
endloop
endfacet
facet normal 0.290275 0.956943 -0.000000
outer loop
vertex -0.012437 -0.030026 0.500000
vertex -0.006340 -0.031876 0.500000
vertex -0.006340 -0.031876 0.450000
endloop
endfacet
facet normal 0.290275 0.956943 -0.000000
outer loop
vertex -0.012437 -0.030026 0.500000
vertex -0.006340 -0.031876 0.450000
vertex -0.012437 -0.030026 0.450000
endloop
endfacet
facet normal -0.773020 -0.634382 0.000000
outer loop
vertex 0.027023 0.018056 0.500000
vertex 0.022981 0.022981 0.500000
vertex 0.022981 0.022981 0.450000
endloop
endfacet
facet normal -0.773019 -0.634383 0.000000
outer loop
vertex 0.027023 0.018056 0.500000
vertex 0.022981 0.022981 0.450000
vertex 0.027023 0.018056 0.450000
endloop
endfacet
facet normal 0.098017 -0.995185 0.000000
outer loop
vertex 0.000000 0.032500 0.500000
vertex -0.006340 0.031876 0.500000
vertex -0.006340 0.031876 0.450000
endloop
endfacet
facet normal 0.098017 -0.995185 0.000000
outer loop
vertex 0.000000 0.032500 0.500000
vertex -0.006340 0.031876 0.450000
vertex -0.000000 0.032500 0.450000
endloop
endfacet
facet normal 0.471398 0.881920 -0.000000
outer loop
vertex -0.018056 -0.027023 0.500000
vertex -0.012437 -0.030026 0.500000
vertex -0.012437 -0.030026 0.450000
endloop
endfacet
facet normal 0.471399 0.881920 -0.000000
outer loop
vertex -0.018056 -0.027023 0.500000
vertex -0.012437 -0.030026 0.450000
vertex -0.018056 -0.027023 0.450000
endloop
endfacet
facet normal -0.881916 -0.471407 0.000000
outer loop
vertex 0.030026 0.012437 0.500000
vertex 0.027023 0.018056 0.500000
vertex 0.027023 0.018056 0.450000
endloop
endfacet
facet normal -0.881915 -0.471409 0.000000
outer loop
vertex 0.030026 0.012437 0.500000
vertex 0.027023 0.018056 0.450000
vertex 0.030026 0.012437 0.450000
endloop
endfacet
facet normal 0.634381 0.773020 -0.000000
outer loop
vertex -0.022981 -0.022981 0.500000
vertex -0.018056 -0.027023 0.500000
vertex -0.018056 -0.027023 0.450000
endloop
endfacet
facet normal 0.634381 0.773021 -0.000000
outer loop
vertex -0.022981 -0.022981 0.500000
vertex -0.018056 -0.027023 0.450000
vertex -0.022981 -0.022981 0.450000
endloop
endfacet
facet normal -0.956941 -0.290281 0.000000
outer loop
vertex 0.031875 0.006340 0.500000
vertex 0.030026 0.012437 0.500000
vertex 0.030026 0.012437 0.450000
endloop
endfacet
facet normal -0.956941 -0.290282 0.000000
outer loop
vertex 0.031875 0.006340 0.500000
vertex 0.030026 0.012437 0.450000
vertex 0.031875 0.006340 0.450000
endloop
endfacet
facet normal 0.773028 0.634372 -0.000000
outer loop
vertex -0.027023 -0.018056 0.500000
vertex -0.022981 -0.022981 0.500000
vertex -0.022981 -0.022981 0.450000
endloop
endfacet
facet normal 0.773027 0.634373 -0.000000
outer loop
vertex -0.027023 -0.018056 0.500000
vertex -0.022981 -0.022981 0.450000
vertex -0.027023 -0.018056 0.450000
endloop
endfacet
facet normal -0.995183 -0.098031 0.000000
outer loop
vertex 0.032500 0.000000 0.500000
vertex 0.031875 0.006340 0.500000
vertex 0.031875 0.006340 0.450000
endloop
endfacet
facet normal -0.995183 -0.098032 0.000000
outer loop
vertex 0.032500 0.000000 0.500000
vertex 0.031875 0.006340 0.450000
vertex 0.032500 -0.000000 0.450000
endloop
endfacet
facet normal 0.881920 0.471399 -0.000000
outer loop
vertex -0.030026 -0.012437 0.500000
vertex -0.027023 -0.018056 0.500000
vertex -0.027023 -0.018056 0.450000
endloop
endfacet
facet normal 0.881919 0.471400 -0.000000
outer loop
vertex -0.030026 -0.012437 0.500000
vertex -0.027023 -0.018056 0.450000
vertex -0.030026 -0.012437 0.450000
endloop
endfacet
facet normal -0.995183 0.098033 -0.000000
outer loop
vertex 0.031875 -0.006340 0.500000
vertex 0.032500 0.000000 0.500000
vertex 0.032500 -0.000000 0.450000
endloop
endfacet
facet normal -0.995183 0.098032 -0.000000
outer loop
vertex 0.031875 -0.006340 0.500000
vertex 0.032500 -0.000000 0.450000
vertex 0.031875 -0.006340 0.450000
endloop
endfacet
facet normal 0.956940 0.290284 -0.000000
outer loop
vertex -0.031875 -0.006340 0.500000
vertex -0.030026 -0.012437 0.500000
vertex -0.030026 -0.012437 0.450000
endloop
endfacet
facet normal 0.956940 0.290284 -0.000000
outer loop
vertex -0.031875 -0.006340 0.500000
vertex -0.030026 -0.012437 0.450000
vertex -0.031875 -0.006340 0.450000
endloop
endfacet
facet normal -0.956941 0.290282 -0.000000
outer loop
vertex 0.030026 -0.012437 0.500000
vertex 0.031875 -0.006340 0.500000
vertex 0.031875 -0.006340 0.450000
endloop
endfacet
facet normal -0.956941 0.290282 -0.000000
outer loop
vertex 0.030026 -0.012437 0.500000
vertex 0.031875 -0.006340 0.450000
vertex 0.030026 -0.012437 0.450000
endloop
endfacet
facet normal 0.995186 0.097999 -0.000000
outer loop
vertex -0.032500 0.000000 0.500000
vertex -0.031875 -0.006340 0.500000
vertex -0.031875 -0.006340 0.450000
endloop
endfacet
facet normal 0.995186 0.098000 -0.000000
outer loop
vertex -0.032500 0.000000 0.500000
vertex -0.031875 -0.006340 0.450000
vertex -0.032500 -0.000000 0.450000
endloop
endfacet
facet normal -0.881913 0.471412 -0.000000
outer loop
vertex 0.027023 -0.018056 0.500000
vertex 0.030026 -0.012437 0.500000
vertex 0.030026 -0.012437 0.450000
endloop
endfacet
facet normal -0.881913 0.471412 -0.000000
outer loop
vertex 0.027023 -0.018056 0.500000
vertex 0.030026 -0.012437 0.450000
vertex 0.027023 -0.018056 0.450000
endloop
endfacet
facet normal 0.995186 -0.098000 0.000000
outer loop
vertex -0.031875 0.006340 0.500000
vertex -0.032500 0.000000 0.500000
vertex -0.032500 -0.000000 0.450000
endloop
endfacet
facet normal 0.995186 -0.097999 0.000000
outer loop
vertex -0.031875 0.006340 0.500000
vertex -0.032500 -0.000000 0.450000
vertex -0.031875 0.006340 0.450000
endloop
endfacet
facet normal -0.773027 0.634373 -0.000000
outer loop
vertex 0.022981 -0.022981 0.500000
vertex 0.027023 -0.018056 0.500000
vertex 0.027023 -0.018056 0.450000
endloop
endfacet
facet normal -0.773026 0.634374 -0.000000
outer loop
vertex 0.022981 -0.022981 0.500000
vertex 0.027023 -0.018056 0.450000
vertex 0.022981 -0.022981 0.450000
endloop
endfacet
facet normal 0.956941 -0.290282 0.000000
outer loop
vertex -0.030026 0.012437 0.500000
vertex -0.031875 0.006340 0.500000
vertex -0.031875 0.006340 0.450000
endloop
endfacet
facet normal 0.956941 -0.290282 0.000000
outer loop
vertex -0.030026 0.012437 0.500000
vertex -0.031875 0.006340 0.450000
vertex -0.030026 0.012437 0.450000
endloop
endfacet
facet normal -0.634384 0.773018 -0.000000
outer loop
vertex 0.018056 -0.027023 0.500000
vertex 0.022981 -0.022981 0.500000
vertex 0.022981 -0.022981 0.450000
endloop
endfacet
facet normal -0.634383 0.773019 -0.000000
outer loop
vertex 0.018056 -0.027023 0.500000
vertex 0.022981 -0.022981 0.450000
vertex 0.018056 -0.027023 0.450000
endloop
endfacet
facet normal 0.881918 -0.471404 0.000000
outer loop
vertex -0.027023 0.018056 0.500000
vertex -0.030026 0.012437 0.500000
vertex -0.030026 0.012437 0.450000
endloop
endfacet
facet normal 0.881918 -0.471403 0.000000
outer loop
vertex -0.027023 0.018056 0.500000
vertex -0.030026 0.012437 0.450000
vertex -0.027023 0.018056 0.450000
endloop
endfacet
facet normal -0.471420 0.881909 -0.000000
outer loop
vertex 0.012437 -0.030026 0.500000
vertex 0.018056 -0.027023 0.500000
vertex 0.018056 -0.027023 0.450000
endloop
endfacet
facet normal -0.471419 0.881909 -0.000000
outer loop
vertex 0.012437 -0.030026 0.500000
vertex 0.018056 -0.027023 0.450000
vertex 0.012437 -0.030026 0.450000
endloop
endfacet
facet normal -0.098019 -0.995185 0.000000
outer loop
vertex 0.006340 0.031876 0.500000
vertex 0.000000 0.032500 0.500000
vertex -0.000000 0.032500 0.450000
endloop
endfacet
facet normal -0.098019 -0.995185 0.000000
outer loop
vertex 0.006340 0.031876 0.500000
vertex -0.000000 0.032500 0.450000
vertex 0.006340 0.031876 0.450000
endloop
endfacet
facet normal 0.773020 -0.634381 0.000000
outer loop
vertex -0.022981 0.022981 0.500000
vertex -0.027023 0.018056 0.500000
vertex -0.027023 0.018056 0.450000
endloop
endfacet
facet normal 0.773020 -0.634381 0.000000
outer loop
vertex -0.022981 0.022981 0.500000
vertex -0.027023 0.018056 0.450000
vertex -0.022981 0.022981 0.450000
endloop
endfacet
facet normal -0.995185 0.098017 0.000000
outer loop
vertex -0.017164 0.003414 0.450000
vertex -0.017500 0.000000 0.450000
vertex -0.017500 0.000000 0.500000
endloop
endfacet
facet normal -0.995185 0.098016 0.000000
outer loop
vertex -0.017164 0.003414 0.450000
vertex -0.017500 0.000000 0.500000
vertex -0.017164 0.003414 0.500000
endloop
endfacet
facet normal 0.773010 -0.634394 0.000000
outer loop
vertex 0.012374 -0.012374 0.450000
vertex 0.014551 -0.009722 0.450000
vertex 0.014551 -0.009722 0.500000
endloop
endfacet
facet normal 0.773010 -0.634394 0.000000
outer loop
vertex 0.012374 -0.012374 0.450000
vertex 0.014551 -0.009722 0.500000
vertex 0.012374 -0.012374 0.500000
endloop
endfacet
facet normal -0.956945 0.290269 0.000000
outer loop
vertex -0.016168 0.006697 0.450000
vertex -0.017164 0.003414 0.450000
vertex -0.017164 0.003414 0.500000
endloop
endfacet
facet normal -0.956945 0.290269 0.000000
outer loop
vertex -0.016168 0.006697 0.450000
vertex -0.017164 0.003414 0.500000
vertex -0.016168 0.006697 0.500000
endloop
endfacet
facet normal 0.634387 -0.773015 0.000000
outer loop
vertex 0.009722 -0.014551 0.450000
vertex 0.012374 -0.012374 0.450000
vertex 0.012374 -0.012374 0.500000
endloop
endfacet
facet normal 0.634386 -0.773016 0.000000
outer loop
vertex 0.009722 -0.014551 0.450000
vertex 0.012374 -0.012374 0.500000
vertex 0.009722 -0.014551 0.500000
endloop
endfacet
facet normal -0.881922 0.471395 0.000000
outer loop
vertex -0.014551 0.009722 0.450000
vertex -0.016168 0.006697 0.450000
vertex -0.016168 0.006697 0.500000
endloop
endfacet
facet normal -0.881923 0.471394 0.000000
outer loop
vertex -0.014551 0.009722 0.450000
vertex -0.016168 0.006697 0.500000
vertex -0.014551 0.009722 0.500000
endloop
endfacet
facet normal 0.471402 -0.881919 0.000000
outer loop
vertex 0.006697 -0.016168 0.450000
vertex 0.009722 -0.014551 0.450000
vertex 0.009722 -0.014551 0.500000
endloop
endfacet
facet normal 0.471401 -0.881919 0.000000
outer loop
vertex 0.006697 -0.016168 0.450000
vertex 0.009722 -0.014551 0.500000
vertex 0.006697 -0.016168 0.500000
endloop
endfacet
facet normal 0.098036 0.995183 0.000000
outer loop
vertex 0.003414 0.017164 0.450000
vertex 0.000000 0.017500 0.450000
vertex 0.000000 0.017500 0.500000
endloop
endfacet
facet normal 0.098036 0.995183 0.000000
outer loop
vertex 0.003414 0.017164 0.450000
vertex 0.000000 0.017500 0.500000
vertex 0.003414 0.017164 0.500000
endloop
endfacet
facet normal -0.772993 0.634415 0.000000
outer loop
vertex -0.012374 0.012374 0.450000
vertex -0.014551 0.009722 0.450000
vertex -0.014551 0.009722 0.500000
endloop
endfacet
facet normal -0.772993 0.634414 0.000000
outer loop
vertex -0.012374 0.012374 0.450000
vertex -0.014551 0.009722 0.500000
vertex -0.012374 0.012374 0.500000
endloop
endfacet
facet normal 0.290289 -0.956939 0.000000
outer loop
vertex 0.003414 -0.017164 0.450000
vertex 0.006697 -0.016168 0.450000
vertex 0.006697 -0.016168 0.500000
endloop
endfacet
facet normal 0.290289 -0.956939 0.000000
outer loop
vertex 0.003414 -0.017164 0.450000
vertex 0.006697 -0.016168 0.500000
vertex 0.003414 -0.017164 0.500000
endloop
endfacet
facet normal 0.290272 0.956944 0.000000
outer loop
vertex 0.006697 0.016168 0.450000
vertex 0.003414 0.017164 0.450000
vertex 0.003414 0.017164 0.500000
endloop
endfacet
facet normal 0.290272 0.956944 0.000000
outer loop
vertex 0.006697 0.016168 0.450000
vertex 0.003414 0.017164 0.500000
vertex 0.006697 0.016168 0.500000
endloop
endfacet
facet normal -0.634401 0.773004 0.000000
outer loop
vertex -0.009722 0.014551 0.450000
vertex -0.012374 0.012374 0.450000
vertex -0.012374 0.012374 0.500000
endloop
endfacet
facet normal -0.634400 0.773005 0.000000
outer loop
vertex -0.009722 0.014551 0.450000
vertex -0.012374 0.012374 0.500000
vertex -0.009722 0.014551 0.500000
endloop
endfacet
facet normal 0.098006 -0.995186 0.000000
outer loop
vertex -0.000000 -0.017500 0.450000
vertex 0.003414 -0.017164 0.450000
vertex 0.003414 -0.017164 0.500000
endloop
endfacet
facet normal 0.098006 -0.995186 0.000000
outer loop
vertex -0.000000 -0.017500 0.450000
vertex 0.003414 -0.017164 0.500000
vertex -0.000000 -0.017500 0.500000
endloop
endfacet
facet normal 0.471386 0.881927 0.000000
outer loop
vertex 0.009722 0.014551 0.450000
vertex 0.006697 0.016168 0.450000
vertex 0.006697 0.016168 0.500000
endloop
endfacet
facet normal 0.471386 0.881927 0.000000
outer loop
vertex 0.009722 0.014551 0.450000
vertex 0.006697 0.016168 0.500000
vertex 0.009722 0.014551 0.500000
endloop
endfacet
facet normal -0.471416 0.881911 0.000000
outer loop
vertex -0.006697 0.016168 0.450000
vertex -0.009722 0.014551 0.450000
vertex -0.009722 0.014551 0.500000
endloop
endfacet
facet normal -0.471415 0.881912 0.000000
outer loop
vertex -0.006697 0.016168 0.450000
vertex -0.009722 0.014551 0.500000
vertex -0.006697 0.016168 0.500000
endloop
endfacet
facet normal -0.098010 -0.995185 -0.000000
outer loop
vertex -0.003414 -0.017164 0.450000
vertex -0.000000 -0.017500 0.450000
vertex -0.000000 -0.017500 0.500000
endloop
endfacet
facet normal -0.098009 -0.995185 0.000000
outer loop
vertex -0.003414 -0.017164 0.450000
vertex -0.000000 -0.017500 0.500000
vertex -0.003414 -0.017164 0.500000
endloop
endfacet
facet normal 0.634392 0.773011 0.000000
outer loop
vertex 0.012374 0.012374 0.450000
vertex 0.009722 0.014551 0.450000
vertex 0.009722 0.014551 0.500000
endloop
endfacet
facet normal 0.634393 0.773011 0.000000
outer loop
vertex 0.012374 0.012374 0.450000
vertex 0.009722 0.014551 0.500000
vertex 0.012374 0.012374 0.500000
endloop
endfacet
facet normal -0.290262 0.956947 0.000000
outer loop
vertex -0.003414 0.017164 0.450000
vertex -0.006697 0.016168 0.450000
vertex -0.006697 0.016168 0.500000
endloop
endfacet
facet normal -0.290262 0.956947 0.000000
outer loop
vertex -0.003414 0.017164 0.450000
vertex -0.006697 0.016168 0.500000
vertex -0.003414 0.017164 0.500000
endloop
endfacet
facet normal -0.290284 -0.956940 0.000000
outer loop
vertex -0.006697 -0.016168 0.450000
vertex -0.003414 -0.017164 0.450000
vertex -0.003414 -0.017164 0.500000
endloop
endfacet
facet normal -0.290285 -0.956940 0.000000
outer loop
vertex -0.006697 -0.016168 0.450000
vertex -0.003414 -0.017164 0.500000
vertex -0.006697 -0.016168 0.500000
endloop
endfacet
facet normal 0.773010 0.634393 0.000000
outer loop
vertex 0.014551 0.009722 0.450000
vertex 0.012374 0.012374 0.450000
vertex 0.012374 0.012374 0.500000
endloop
endfacet
facet normal 0.773009 0.634394 0.000000
outer loop
vertex 0.014551 0.009722 0.450000
vertex 0.012374 0.012374 0.500000
vertex 0.014551 0.009722 0.500000
endloop
endfacet
facet normal -0.098036 0.995183 0.000000
outer loop
vertex 0.000000 0.017500 0.450000
vertex -0.003414 0.017164 0.450000
vertex -0.003414 0.017164 0.500000
endloop
endfacet
facet normal -0.098036 0.995183 0.000000
outer loop
vertex 0.000000 0.017500 0.450000
vertex -0.003414 0.017164 0.500000
vertex 0.000000 0.017500 0.500000
endloop
endfacet
facet normal -0.471386 -0.881927 0.000000
outer loop
vertex -0.009722 -0.014551 0.450000
vertex -0.006697 -0.016168 0.450000
vertex -0.006697 -0.016168 0.500000
endloop
endfacet
facet normal -0.471386 -0.881927 0.000000
outer loop
vertex -0.009722 -0.014551 0.450000
vertex -0.006697 -0.016168 0.500000
vertex -0.009722 -0.014551 0.500000
endloop
endfacet
facet normal 0.881925 0.471390 0.000000
outer loop
vertex 0.016168 0.006697 0.450000
vertex 0.014551 0.009722 0.450000
vertex 0.014551 0.009722 0.500000
endloop
endfacet
facet normal 0.881924 0.471391 0.000000
outer loop
vertex 0.016168 0.006697 0.450000
vertex 0.014551 0.009722 0.500000
vertex 0.016168 0.006697 0.500000
endloop
endfacet
facet normal -0.634400 -0.773005 0.000000
outer loop
vertex -0.012374 -0.012374 0.450000
vertex -0.009722 -0.014551 0.450000
vertex -0.009722 -0.014551 0.500000
endloop
endfacet
facet normal -0.634400 -0.773005 0.000000
outer loop
vertex -0.012374 -0.012374 0.450000
vertex -0.009722 -0.014551 0.500000
vertex -0.012374 -0.012374 0.500000
endloop
endfacet
facet normal 0.956942 0.290278 0.000000
outer loop
vertex 0.017164 0.003414 0.450000
vertex 0.016168 0.006697 0.450000
vertex 0.016168 0.006697 0.500000
endloop
endfacet
facet normal 0.956942 0.290279 0.000000
outer loop
vertex 0.017164 0.003414 0.450000
vertex 0.016168 0.006697 0.500000
vertex 0.017164 0.003414 0.500000
endloop
endfacet
facet normal -0.773002 -0.634404 0.000000
outer loop
vertex -0.014551 -0.009722 0.450000
vertex -0.012374 -0.012374 0.450000
vertex -0.012374 -0.012374 0.500000
endloop
endfacet
facet normal -0.773002 -0.634404 0.000000
outer loop
vertex -0.014551 -0.009722 0.450000
vertex -0.012374 -0.012374 0.500000
vertex -0.014551 -0.009722 0.500000
endloop
endfacet
facet normal 0.995187 0.097998 0.000000
outer loop
vertex 0.017500 0.000000 0.450000
vertex 0.017164 0.003414 0.450000
vertex 0.017164 0.003414 0.500000
endloop
endfacet
facet normal 0.995187 0.097999 0.000000
outer loop
vertex 0.017500 0.000000 0.450000
vertex 0.017164 0.003414 0.500000
vertex 0.017500 0.000000 0.500000
endloop
endfacet
facet normal -0.881921 -0.471397 0.000000
outer loop
vertex -0.016168 -0.006697 0.450000
vertex -0.014551 -0.009722 0.450000
vertex -0.014551 -0.009722 0.500000
endloop
endfacet
facet normal -0.881921 -0.471398 0.000000
outer loop
vertex -0.016168 -0.006697 0.450000
vertex -0.014551 -0.009722 0.500000
vertex -0.016168 -0.006697 0.500000
endloop
endfacet
facet normal 0.995186 -0.098000 0.000000
outer loop
vertex 0.017164 -0.003414 0.450000
vertex 0.017500 0.000000 0.450000
vertex 0.017500 0.000000 0.500000
endloop
endfacet
facet normal 0.995186 -0.098001 0.000000
outer loop
vertex 0.017164 -0.003414 0.450000
vertex 0.017500 0.000000 0.500000
vertex 0.017164 -0.003414 0.500000
endloop
endfacet
facet normal -0.956947 -0.290263 0.000000
outer loop
vertex -0.017164 -0.003414 0.450000
vertex -0.016168 -0.006697 0.450000
vertex -0.016168 -0.006697 0.500000
endloop
endfacet
facet normal -0.956946 -0.290265 0.000000
outer loop
vertex -0.017164 -0.003414 0.450000
vertex -0.016168 -0.006697 0.500000
vertex -0.017164 -0.003414 0.500000
endloop
endfacet
facet normal 0.956942 -0.290280 0.000000
outer loop
vertex 0.016168 -0.006697 0.450000
vertex 0.017164 -0.003414 0.450000
vertex 0.017164 -0.003414 0.500000
endloop
endfacet
facet normal 0.956942 -0.290280 0.000000
outer loop
vertex 0.016168 -0.006697 0.450000
vertex 0.017164 -0.003414 0.500000
vertex 0.016168 -0.006697 0.500000
endloop
endfacet
facet normal -0.995185 -0.098018 0.000000
outer loop
vertex -0.017500 0.000000 0.450000
vertex -0.017164 -0.003414 0.450000
vertex -0.017164 -0.003414 0.500000
endloop
endfacet
facet normal -0.995185 -0.098019 0.000000
outer loop
vertex -0.017500 0.000000 0.450000
vertex -0.017164 -0.003414 0.500000
vertex -0.017500 0.000000 0.500000
endloop
endfacet
facet normal 0.881929 -0.471383 0.000000
outer loop
vertex 0.014551 -0.009722 0.450000
vertex 0.016168 -0.006697 0.450000
vertex 0.016168 -0.006697 0.500000
endloop
endfacet
facet normal 0.881928 -0.471384 0.000000
outer loop
vertex 0.014551 -0.009722 0.450000
vertex 0.016168 -0.006697 0.500000
vertex 0.014551 -0.009722 0.500000
endloop
endfacet
endsolid
