solid topOutflow
facet normal 0.000000 0.000000 1.000000
outer loop
vertex 0.080000 -0.080000 0.500000
vertex 0.080000 0.080000 0.500000
vertex 0.032500 0.000000 0.500000
endloop
endfacet
facet normal -0.000003 0.000000 1.000000
outer loop
vertex 0.080000 -0.080000 0.500000
vertex 0.032500 0.000000 0.500000
vertex 0.031875 -0.006340 0.500000
endloop
endfacet
facet normal 0.000000 0.000000 1.000000
outer loop
vertex -0.031875 -0.006340 0.500000
vertex -0.032500 0.000000 0.500000
vertex -0.080000 -0.080000 0.500000
endloop
endfacet
facet normal 0.000000 0.000000 1.000000
outer loop
vertex -0.030026 -0.012437 0.500000
vertex -0.031875 -0.006340 0.500000
vertex -0.080000 -0.080000 0.500000
endloop
endfacet
facet normal -0.000002 0.000000 1.000000
outer loop
vertex 0.080000 -0.080000 0.500000
vertex 0.031875 -0.006340 0.500000
vertex 0.030026 -0.012437 0.500000
endloop
endfacet
facet normal 0.000000 0.000000 1.000000
outer loop
vertex 0.080000 -0.080000 0.500000
vertex 0.030026 -0.012437 0.500000
vertex 0.027023 -0.018056 0.500000
endloop
endfacet
facet normal 0.000000 0.000000 1.000000
outer loop
vertex -0.027023 -0.018056 0.500000
vertex -0.030026 -0.012437 0.500000
vertex -0.080000 -0.080000 0.500000
endloop
endfacet
facet normal 0.000000 0.000000 1.000000
outer loop
vertex -0.022981 -0.022981 0.500000
vertex -0.027023 -0.018056 0.500000
vertex -0.080000 -0.080000 0.500000
endloop
endfacet
facet normal 0.000004 0.000000 1.000000
outer loop
vertex 0.080000 -0.080000 0.500000
vertex 0.027023 -0.018056 0.500000
vertex 0.022981 -0.022981 0.500000
endloop
endfacet
facet normal 0.000000 0.000000 1.000000
outer loop
vertex 0.080000 -0.080000 0.500000
vertex 0.022981 -0.022981 0.500000
vertex 0.018056 -0.027023 0.500000
endloop
endfacet
facet normal 0.000000 0.000000 1.000000
outer loop
vertex -0.018056 -0.027023 0.500000
vertex -0.022981 -0.022981 0.500000
vertex -0.080000 -0.080000 0.500000
endloop
endfacet
facet normal 0.000000 0.000000 1.000000
outer loop
vertex -0.012437 -0.030026 0.500000
vertex -0.018056 -0.027023 0.500000
vertex -0.080000 -0.080000 0.500000
endloop
endfacet
facet normal 0.000000 0.000000 1.000000
outer loop
vertex -0.080000 -0.080000 0.500000
vertex 0.080000 -0.080000 0.500000
vertex 0.018056 -0.027023 0.500000
endloop
endfacet
facet normal 0.000000 0.000000 1.000000
outer loop
vertex -0.080000 -0.080000 0.500000
vertex 0.018056 -0.027023 0.500000
vertex 0.012437 -0.030026 0.500000
endloop
endfacet
facet normal 0.000000 0.000000 1.000000
outer loop
vertex -0.006340 -0.031876 0.500000
vertex -0.012437 -0.030026 0.500000
vertex -0.080000 -0.080000 0.500000
endloop
endfacet
facet normal 0.000000 0.000000 1.000000
outer loop
vertex 0.000000 -0.032500 0.500000
vertex -0.006340 -0.031876 0.500000
vertex -0.080000 -0.080000 0.500000
endloop
endfacet
facet normal 0.000000 0.000000 1.000000
outer loop
vertex -0.080000 -0.080000 0.500000
vertex 0.012437 -0.030026 0.500000
vertex 0.006340 -0.031876 0.500000
endloop
endfacet
facet normal 0.000000 0.000000 1.000000
outer loop
vertex 0.006340 -0.031876 0.500000
vertex 0.000000 -0.032500 0.500000
vertex -0.080000 -0.080000 0.500000
endloop
endfacet
facet normal 0.000000 0.000000 1.000000
outer loop
vertex -0.080000 0.080000 0.500000
vertex -0.080000 -0.080000 0.500000
vertex -0.032500 0.000000 0.500000
endloop
endfacet
facet normal 0.000009 0.000000 1.000000
outer loop
vertex -0.080000 0.080000 0.500000
vertex -0.032500 0.000000 0.500000
vertex -0.031875 0.006340 0.500000
endloop
endfacet
facet normal 0.000000 0.000000 1.000000
outer loop
vertex 0.031875 0.006340 0.500000
vertex 0.032500 0.000000 0.500000
vertex 0.080000 0.080000 0.500000
endloop
endfacet
facet normal 0.000017 0.000000 1.000000
outer loop
vertex 0.030026 0.012437 0.500000
vertex 0.031875 0.006340 0.500000
vertex 0.080000 0.080000 0.500000
endloop
endfacet
facet normal -0.000016 0.000000 1.000000
outer loop
vertex -0.080000 0.080000 0.500000
vertex -0.031875 0.006340 0.500000
vertex -0.030026 0.012437 0.500000
endloop
endfacet
facet normal 0.000012 0.000000 1.000000
outer loop
vertex -0.080000 0.080000 0.500000
vertex -0.030026 0.012437 0.500000
vertex -0.027023 0.018056 0.500000
endloop
endfacet
facet normal 0.000000 0.000000 1.000000
outer loop
vertex 0.027023 0.018056 0.500000
vertex 0.030026 0.012437 0.500000
vertex 0.080000 0.080000 0.500000
endloop
endfacet
facet normal 0.000000 0.000000 1.000000
outer loop
vertex 0.022981 0.022981 0.500000
vertex 0.027023 0.018056 0.500000
vertex 0.080000 0.080000 0.500000
endloop
endfacet
facet normal 0.000000 0.000000 1.000000
outer loop
vertex -0.080000 0.080000 0.500000
vertex -0.027023 0.018056 0.500000
vertex -0.022981 0.022981 0.500000
endloop
endfacet
facet normal -0.000007 0.000000 1.000000
outer loop
vertex -0.080000 0.080000 0.500000
vertex -0.022981 0.022981 0.500000
vertex -0.018056 0.027023 0.500000
endloop
endfacet
facet normal 0.000000 0.000000 1.000000
outer loop
vertex 0.018056 0.027023 0.500000
vertex 0.022981 0.022981 0.500000
vertex 0.080000 0.080000 0.500000
endloop
endfacet
facet normal 0.000000 0.000000 1.000000
outer loop
vertex 0.012437 0.030026 0.500000
vertex 0.018056 0.027023 0.500000
vertex 0.080000 0.080000 0.500000
endloop
endfacet
facet normal 0.000000 0.000000 1.000000
outer loop
vertex 0.080000 0.080000 0.500000
vertex -0.080000 0.080000 0.500000
vertex -0.018056 0.027023 0.500000
endloop
endfacet
facet normal 0.000585 0.000000 1.000000
outer loop
vertex 0.080000 0.080000 0.500000
vertex -0.018056 0.027023 0.500000
vertex -0.012437 0.030026 0.500000
endloop
endfacet
facet normal 0.000000 0.000000 1.000000
outer loop
vertex 0.006340 0.031876 0.500000
vertex 0.012437 0.030026 0.500000
vertex 0.080000 0.080000 0.500000
endloop
endfacet
facet normal 0.000000 0.000000 1.000000
outer loop
vertex 0.000000 0.032500 0.500000
vertex 0.006340 0.031876 0.500000
vertex 0.080000 0.080000 0.500000
endloop
endfacet
facet normal 0.000000 0.000000 1.000000
outer loop
vertex 0.080000 0.080000 0.500000
vertex -0.012437 0.030026 0.500000
vertex -0.006340 0.031876 0.500000
endloop
endfacet
facet normal 0.000000 0.000000 1.000000
outer loop
vertex -0.006340 0.031876 0.500000
vertex 0.000000 0.032500 0.500000
vertex 0.080000 0.080000 0.500000
endloop
endfacet
endsolid
