solid inlet
facet normal -0.000016 0.000000 1.000000
outer loop
vertex -0.500000 -0.000000 1.999999
vertex -0.490393 -0.097545 1.999999
vertex -0.461940 -0.191342 1.999999
endloop
endfacet
facet normal 0.000000 0.000000 1.000000
outer loop
vertex -0.461940 -0.191342 1.999999
vertex -0.415735 -0.277786 1.999999
vertex -0.353554 -0.353553 1.999999
endloop
endfacet
facet normal 0.000000 0.000000 1.000000
outer loop
vertex -0.353554 -0.353553 1.999999
vertex -0.277785 -0.415735 1.999999
vertex -0.191342 -0.461940 1.999999
endloop
endfacet
facet normal 0.000004 0.000000 1.000000
outer loop
vertex -0.191342 -0.461940 1.999999
vertex -0.097546 -0.490393 1.999999
vertex 0.000000 -0.500000 1.999999
endloop
endfacet
facet normal -0.000004 0.000000 1.000000
outer loop
vertex 0.000000 -0.500000 1.999999
vertex 0.097545 -0.490393 1.999999
vertex 0.191341 -0.461940 1.999999
endloop
endfacet
facet normal 0.000000 0.000000 1.000000
outer loop
vertex 0.191341 -0.461940 1.999999
vertex 0.277786 -0.415735 1.999999
vertex 0.353553 -0.353553 1.999999
endloop
endfacet
facet normal 0.000000 0.000000 1.000000
outer loop
vertex 0.353553 -0.353553 1.999999
vertex 0.415734 -0.277785 1.999999
vertex 0.461939 -0.191341 1.999999
endloop
endfacet
facet normal 0.000000 0.000000 1.000000
outer loop
vertex 0.461939 -0.191341 1.999999
vertex 0.490393 -0.097545 1.999999
vertex 0.499999 0.000001 1.999999
endloop
endfacet
facet normal 0.000000 0.000000 1.000000
outer loop
vertex 0.499999 0.000001 1.999999
vertex 0.490393 0.097546 1.999999
vertex 0.461939 0.191342 1.999999
endloop
endfacet
facet normal 0.000000 0.000000 1.000000
outer loop
vertex 0.461939 0.191342 1.999999
vertex 0.415734 0.277786 1.999999
vertex 0.353553 0.353553 1.999999
endloop
endfacet
facet normal 0.000000 0.000000 1.000000
outer loop
vertex 0.353553 0.353553 1.999999
vertex 0.277784 0.415735 1.999999
vertex 0.191341 0.461941 1.999999
endloop
endfacet
facet normal -0.000004 0.000000 1.000000
outer loop
vertex 0.191341 0.461941 1.999999
vertex 0.097544 0.490393 1.999999
vertex 0.000000 0.500000 1.999999
endloop
endfacet
facet normal 0.000004 0.000000 1.000000
outer loop
vertex 0.000000 0.500000 1.999999
vertex -0.097546 0.490393 1.999999
vertex -0.191342 0.461939 1.999999
endloop
endfacet
facet normal 0.000000 0.000000 1.000000
outer loop
vertex -0.191342 0.461939 1.999999
vertex -0.277785 0.415734 1.999999
vertex -0.353554 0.353553 1.999999
endloop
endfacet
facet normal 0.000000 0.000000 1.000000
outer loop
vertex -0.353554 0.353553 1.999999
vertex -0.415735 0.277785 1.999999
vertex -0.461940 0.191341 1.999999
endloop
endfacet
facet normal 0.000000 0.000000 1.000000
outer loop
vertex -0.461940 0.191341 1.999999
vertex -0.490393 0.097545 1.999999
vertex -0.500000 -0.000000 1.999999
endloop
endfacet
facet normal 0.000000 0.000000 1.000000
outer loop
vertex -0.500000 -0.000000 1.999999
vertex -0.461940 -0.191342 1.999999
vertex -0.353554 -0.353553 1.999999
endloop
endfacet
facet normal 0.000002 0.000000 1.000000
outer loop
vertex -0.353554 -0.353553 1.999999
vertex -0.191342 -0.461940 1.999999
vertex 0.000000 -0.500000 1.999999
endloop
endfacet
facet normal -0.000002 0.000000 1.000000
outer loop
vertex 0.000000 -0.500000 1.999999
vertex 0.191341 -0.461940 1.999999
vertex 0.353553 -0.353553 1.999999
endloop
endfacet
facet normal 0.000000 0.000000 1.000000
outer loop
vertex 0.353553 -0.353553 1.999999
vertex 0.461939 -0.191341 1.999999
vertex 0.499999 0.000001 1.999999
endloop
endfacet
facet normal 0.000008 0.000000 1.000000
outer loop
vertex 0.499999 0.000001 1.999999
vertex 0.461939 0.191342 1.999999
vertex 0.353553 0.353553 1.999999
endloop
endfacet
facet normal -0.000002 0.000000 1.000000
outer loop
vertex 0.353553 0.353553 1.999999
vertex 0.191341 0.461941 1.999999
vertex 0.000000 0.500000 1.999999
endloop
endfacet
facet normal 0.000002 0.000000 1.000000
outer loop
vertex 0.000000 0.500000 1.999999
vertex -0.191342 0.461939 1.999999
vertex -0.353554 0.353553 1.999999
endloop
endfacet
facet normal -0.000008 0.000000 1.000000
outer loop
vertex -0.353554 0.353553 1.999999
vertex -0.461940 0.191341 1.999999
vertex -0.500000 -0.000000 1.999999
endloop
endfacet
facet normal 0.000000 0.000000 1.000000
outer loop
vertex -0.500000 -0.000000 1.999999
vertex -0.353554 -0.353553 1.999999
vertex 0.000000 -0.500000 1.999999
endloop
endfacet
facet normal 0.000000 0.000000 1.000000
outer loop
vertex 0.000000 -0.500000 1.999999
vertex 0.353553 -0.353553 1.999999
vertex 0.499999 0.000001 1.999999
endloop
endfacet
facet normal 0.000000 0.000000 1.000000
outer loop
vertex 0.499999 0.000001 1.999999
vertex 0.353553 0.353553 1.999999
vertex 0.000000 0.500000 1.999999
endloop
endfacet
facet normal 0.000000 0.000000 1.000000
outer loop
vertex 0.000000 0.500000 1.999999
vertex -0.353554 0.353553 1.999999
vertex -0.500000 -0.000000 1.999999
endloop
endfacet
facet normal 0.000000 0.000000 1.000000
outer loop
vertex -0.500000 -0.000000 1.999999
vertex 0.000000 -0.500000 1.999999
vertex 0.499999 0.000001 1.999999
endloop
endfacet
facet normal 0.000000 0.000000 1.000000
outer loop
vertex 0.499999 0.000001 1.999999
vertex 0.000000 0.500000 1.999999
vertex -0.500000 -0.000000 1.999999
endloop
endfacet
endsolid
