solid nozzle
facet normal 0.995185 0.098015 0.000000
outer loop
vertex -0.600000 -0.000000 2.000000
vertex -0.588472 -0.117054 2.000000
vertex -0.588472 -0.117054 1.000000
endloop
endfacet
facet normal 0.995185 0.098015 0.000000
outer loop
vertex -0.600000 -0.000000 2.000000
vertex -0.588472 -0.117054 1.000000
vertex -0.600000 -0.000000 1.000000
endloop
endfacet
facet normal 0.000000 0.000000 1.000000
outer loop
vertex 0.600000 0.000001 1.000000
vertex 0.588471 0.117054 1.000000
vertex 0.554327 0.229611 1.000000
endloop
endfacet
facet normal 0.000000 0.000000 1.000000
outer loop
vertex 0.554327 0.229611 1.000000
vertex 0.498881 0.333343 1.000000
vertex 0.424263 0.424264 1.000000
endloop
endfacet
facet normal 0.000000 0.000000 1.000000
outer loop
vertex 0.424263 0.424264 1.000000
vertex 0.333342 0.498882 1.000000
vertex 0.229610 0.554327 1.000000
endloop
endfacet
facet normal -0.000001 0.000000 1.000000
outer loop
vertex 0.229610 0.554327 1.000000
vertex 0.117053 0.588471 1.000000
vertex 0.000000 0.600000 1.000000
endloop
endfacet
facet normal 0.000000 0.000000 1.000000
outer loop
vertex 0.000000 0.600000 1.000000
vertex -0.117054 0.588471 1.000000
vertex -0.229610 0.554327 1.000000
endloop
endfacet
facet normal 0.000000 0.000000 1.000000
outer loop
vertex -0.229610 0.554327 1.000000
vertex -0.333342 0.498882 1.000000
vertex -0.424264 0.424264 1.000000
endloop
endfacet
facet normal 0.000000 0.000000 1.000000
outer loop
vertex -0.424264 0.424264 1.000000
vertex -0.498883 0.333342 1.000000
vertex -0.554328 0.229610 1.000000
endloop
endfacet
facet normal 0.000000 0.000000 1.000000
outer loop
vertex -0.554328 0.229610 1.000000
vertex -0.588472 0.117054 1.000000
vertex -0.600000 -0.000000 1.000000
endloop
endfacet
facet normal 0.000000 0.000000 1.000000
outer loop
vertex -0.600000 -0.000000 1.000000
vertex -0.500000 -0.000000 1.000000
vertex -0.490393 0.097545 1.000000
endloop
endfacet
facet normal 0.000000 0.000000 1.000000
outer loop
vertex -0.600000 -0.000000 1.000000
vertex -0.490393 0.097545 1.000000
vertex -0.461940 0.191341 1.000000
endloop
endfacet
facet normal -0.000001 0.000000 1.000000
outer loop
vertex -0.424264 0.424264 1.000000
vertex -0.554328 0.229610 1.000000
vertex -0.600000 -0.000000 1.000000
endloop
endfacet
facet normal 0.000000 0.000000 1.000000
outer loop
vertex 0.000000 0.600000 1.000000
vertex -0.229610 0.554327 1.000000
vertex -0.424264 0.424264 1.000000
endloop
endfacet
facet normal -0.000000 0.000000 1.000000
outer loop
vertex 0.424263 0.424264 1.000000
vertex 0.229610 0.554327 1.000000
vertex 0.000000 0.600000 1.000000
endloop
endfacet
facet normal 0.000001 0.000000 1.000000
outer loop
vertex 0.600000 0.000001 1.000000
vertex 0.554327 0.229611 1.000000
vertex 0.424263 0.424264 1.000000
endloop
endfacet
facet normal -0.000000 0.000000 1.000000
outer loop
vertex 0.490393 0.097546 1.000000
vertex 0.499999 0.000001 1.000000
vertex 0.600000 0.000001 1.000000
endloop
endfacet
facet normal 0.000000 0.000000 1.000000
outer loop
vertex 0.461939 0.191342 1.000000
vertex 0.490393 0.097546 1.000000
vertex 0.600000 0.000001 1.000000
endloop
endfacet
facet normal 0.000001 0.000000 1.000000
outer loop
vertex -0.424264 0.424264 1.000000
vertex -0.600000 -0.000000 1.000000
vertex -0.461940 0.191341 1.000000
endloop
endfacet
facet normal -0.000002 0.000000 1.000000
outer loop
vertex -0.424264 0.424264 1.000000
vertex -0.461940 0.191341 1.000000
vertex -0.415735 0.277785 1.000000
endloop
endfacet
facet normal -0.000002 0.000000 1.000000
outer loop
vertex 0.461939 0.191342 1.000000
vertex 0.600000 0.000001 1.000000
vertex 0.424263 0.424264 1.000000
endloop
endfacet
facet normal 0.000004 0.000000 1.000000
outer loop
vertex 0.415734 0.277786 1.000000
vertex 0.461939 0.191342 1.000000
vertex 0.424263 0.424264 1.000000
endloop
endfacet
facet normal 0.000000 0.000000 1.000000
outer loop
vertex -0.424264 0.424264 1.000000
vertex -0.415735 0.277785 1.000000
vertex -0.353554 0.353553 1.000000
endloop
endfacet
facet normal 0.000000 0.000000 1.000000
outer loop
vertex -0.424264 0.424264 1.000000
vertex -0.353554 0.353553 1.000000
vertex -0.277785 0.415734 1.000000
endloop
endfacet
facet normal 0.000000 0.000000 1.000000
outer loop
vertex 0.353553 0.353553 1.000000
vertex 0.415734 0.277786 1.000000
vertex 0.424263 0.424264 1.000000
endloop
endfacet
facet normal 0.000000 0.000000 1.000000
outer loop
vertex 0.277784 0.415735 1.000000
vertex 0.353553 0.353553 1.000000
vertex 0.424263 0.424264 1.000000
endloop
endfacet
facet normal -0.000000 0.000000 1.000000
outer loop
vertex 0.000000 0.600000 1.000000
vertex -0.424264 0.424264 1.000000
vertex -0.277785 0.415734 1.000000
endloop
endfacet
facet normal -0.000002 0.000000 1.000000
outer loop
vertex 0.000000 0.600000 1.000000
vertex -0.277785 0.415734 1.000000
vertex -0.191343 0.461939 1.000000
endloop
endfacet
facet normal 0.000000 0.000000 1.000000
outer loop
vertex 0.277784 0.415735 1.000000
vertex 0.424263 0.424264 1.000000
vertex 0.000000 0.600000 1.000000
endloop
endfacet
facet normal 0.000000 0.000000 1.000000
outer loop
vertex 0.191341 0.461941 1.000000
vertex 0.277784 0.415735 1.000000
vertex 0.000000 0.600000 1.000000
endloop
endfacet
facet normal 0.000002 0.000000 1.000000
outer loop
vertex 0.000000 0.600000 1.000000
vertex -0.191343 0.461939 1.000000
vertex -0.097546 0.490393 1.000000
endloop
endfacet
facet normal -0.000001 0.000000 1.000000
outer loop
vertex 0.000000 0.600000 1.000000
vertex -0.097546 0.490393 1.000000
vertex 0.000000 0.500000 1.000000
endloop
endfacet
facet normal 0.000000 0.000000 1.000000
outer loop
vertex 0.097544 0.490393 1.000000
vertex 0.191341 0.461941 1.000000
vertex 0.000000 0.600000 1.000000
endloop
endfacet
facet normal 0.000001 0.000000 1.000000
outer loop
vertex 0.000000 0.600000 1.000000
vertex 0.000000 0.500000 1.000000
vertex 0.097544 0.490393 1.000000
endloop
endfacet
facet normal -0.881922 0.471396 0.000000
outer loop
vertex 0.498882 -0.333342 2.000000
vertex 0.554328 -0.229609 2.000000
vertex 0.554328 -0.229609 1.000000
endloop
endfacet
facet normal -0.881922 0.471395 0.000000
outer loop
vertex 0.498882 -0.333342 2.000000
vertex 0.554328 -0.229609 1.000000
vertex 0.498882 -0.333342 1.000000
endloop
endfacet
facet normal 0.995185 -0.098015 0.000000
outer loop
vertex -0.588472 0.117054 2.000000
vertex -0.600000 -0.000000 2.000000
vertex -0.600000 -0.000000 1.000000
endloop
endfacet
facet normal 0.995185 -0.098015 0.000000
outer loop
vertex -0.588472 0.117054 2.000000
vertex -0.600000 -0.000000 1.000000
vertex -0.588472 0.117054 1.000000
endloop
endfacet
facet normal -0.773013 0.634390 0.000000
outer loop
vertex 0.424265 -0.424264 2.000000
vertex 0.498882 -0.333342 2.000000
vertex 0.498882 -0.333342 1.000000
endloop
endfacet
facet normal -0.773013 0.634390 0.000000
outer loop
vertex 0.424265 -0.424264 2.000000
vertex 0.498882 -0.333342 1.000000
vertex 0.424265 -0.424264 1.000000
endloop
endfacet
facet normal 0.956939 -0.290289 0.000000
outer loop
vertex -0.554328 0.229610 2.000000
vertex -0.588472 0.117054 2.000000
vertex -0.588472 0.117054 1.000000
endloop
endfacet
facet normal 0.956939 -0.290289 0.000000
outer loop
vertex -0.554328 0.229610 2.000000
vertex -0.588472 0.117054 1.000000
vertex -0.554328 0.229610 1.000000
endloop
endfacet
facet normal -0.634393 0.773011 0.000000
outer loop
vertex 0.333342 -0.498882 2.000000
vertex 0.424265 -0.424264 2.000000
vertex 0.424265 -0.424264 1.000000
endloop
endfacet
facet normal -0.634393 0.773011 0.000000
outer loop
vertex 0.333342 -0.498882 2.000000
vertex 0.424265 -0.424264 1.000000
vertex 0.333342 -0.498882 1.000000
endloop
endfacet
facet normal 0.881924 -0.471392 0.000000
outer loop
vertex -0.498883 0.333342 2.000000
vertex -0.554328 0.229610 2.000000
vertex -0.554328 0.229610 1.000000
endloop
endfacet
facet normal 0.881924 -0.471392 0.000000
outer loop
vertex -0.498883 0.333342 2.000000
vertex -0.554328 0.229610 1.000000
vertex -0.498883 0.333342 1.000000
endloop
endfacet
facet normal -0.471393 0.881923 0.000000
outer loop
vertex 0.229610 -0.554327 2.000000
vertex 0.333342 -0.498882 2.000000
vertex 0.333342 -0.498882 1.000000
endloop
endfacet
facet normal -0.471393 0.881923 0.000000
outer loop
vertex 0.229610 -0.554327 2.000000
vertex 0.333342 -0.498882 1.000000
vertex 0.229610 -0.554327 1.000000
endloop
endfacet
facet normal -0.098020 -0.995184 0.000000
outer loop
vertex 0.117053 0.588471 2.000000
vertex 0.000000 0.600000 2.000000
vertex 0.000000 0.600000 1.000000
endloop
endfacet
facet normal -0.098020 -0.995184 0.000000
outer loop
vertex 0.117053 0.588471 2.000000
vertex 0.000000 0.600000 1.000000
vertex 0.117053 0.588471 1.000000
endloop
endfacet
facet normal 0.773008 -0.634396 0.000000
outer loop
vertex -0.424264 0.424264 2.000000
vertex -0.498883 0.333342 2.000000
vertex -0.498883 0.333342 1.000000
endloop
endfacet
facet normal 0.773008 -0.634396 0.000000
outer loop
vertex -0.424264 0.424264 2.000000
vertex -0.498883 0.333342 1.000000
vertex -0.424264 0.424264 1.000000
endloop
endfacet
facet normal -0.290292 0.956938 0.000000
outer loop
vertex 0.117055 -0.588472 2.000000
vertex 0.229610 -0.554327 2.000000
vertex 0.229610 -0.554327 1.000000
endloop
endfacet
facet normal -0.290292 0.956938 0.000000
outer loop
vertex 0.117055 -0.588472 2.000000
vertex 0.229610 -0.554327 1.000000
vertex 0.117055 -0.588472 1.000000
endloop
endfacet
facet normal -0.290285 -0.956940 0.000000
outer loop
vertex 0.229610 0.554327 2.000000
vertex 0.117053 0.588471 2.000000
vertex 0.117053 0.588471 1.000000
endloop
endfacet
facet normal -0.290285 -0.956940 0.000000
outer loop
vertex 0.229610 0.554327 2.000000
vertex 0.117053 0.588471 1.000000
vertex 0.229610 0.554327 1.000000
endloop
endfacet
facet normal 0.634392 -0.773012 0.000000
outer loop
vertex -0.333342 0.498882 2.000000
vertex -0.424264 0.424264 2.000000
vertex -0.424264 0.424264 1.000000
endloop
endfacet
facet normal 0.634392 -0.773012 0.000000
outer loop
vertex -0.333342 0.498882 2.000000
vertex -0.424264 0.424264 1.000000
vertex -0.333342 0.498882 1.000000
endloop
endfacet
facet normal -0.098013 0.995185 0.000000
outer loop
vertex 0.000000 -0.600000 2.000000
vertex 0.117055 -0.588472 2.000000
vertex 0.117055 -0.588472 1.000000
endloop
endfacet
facet normal -0.098013 0.995185 0.000000
outer loop
vertex 0.000000 -0.600000 2.000000
vertex 0.117055 -0.588472 1.000000
vertex 0.000000 -0.600000 1.000000
endloop
endfacet
facet normal -0.471392 -0.881923 0.000000
outer loop
vertex 0.333342 0.498882 2.000000
vertex 0.229610 0.554327 2.000000
vertex 0.229610 0.554327 1.000000
endloop
endfacet
facet normal -0.471392 -0.881924 0.000000
outer loop
vertex 0.333342 0.498882 2.000000
vertex 0.229610 0.554327 1.000000
vertex 0.333342 0.498882 1.000000
endloop
endfacet
facet normal 0.471396 -0.881921 0.000000
outer loop
vertex -0.229610 0.554327 2.000000
vertex -0.333342 0.498882 2.000000
vertex -0.333342 0.498882 1.000000
endloop
endfacet
facet normal 0.471397 -0.881921 0.000000
outer loop
vertex -0.229610 0.554327 2.000000
vertex -0.333342 0.498882 1.000000
vertex -0.229610 0.554327 1.000000
endloop
endfacet
facet normal 0.098014 0.995185 0.000000
outer loop
vertex -0.117054 -0.588472 2.000000
vertex 0.000000 -0.600000 2.000000
vertex 0.000000 -0.600000 1.000000
endloop
endfacet
facet normal 0.098014 0.995185 0.000000
outer loop
vertex -0.117054 -0.588472 2.000000
vertex 0.000000 -0.600000 1.000000
vertex -0.117054 -0.588472 1.000000
endloop
endfacet
facet normal -0.634396 -0.773008 0.000000
outer loop
vertex 0.424263 0.424264 2.000000
vertex 0.333342 0.498882 2.000000
vertex 0.333342 0.498882 1.000000
endloop
endfacet
facet normal -0.634396 -0.773008 0.000000
outer loop
vertex 0.424263 0.424264 2.000000
vertex 0.333342 0.498882 1.000000
vertex 0.424263 0.424264 1.000000
endloop
endfacet
facet normal 0.290286 -0.956940 0.000000
outer loop
vertex -0.117054 0.588471 2.000000
vertex -0.229610 0.554327 2.000000
vertex -0.229610 0.554327 1.000000
endloop
endfacet
facet normal 0.290286 -0.956940 0.000000
outer loop
vertex -0.117054 0.588471 2.000000
vertex -0.229610 0.554327 1.000000
vertex -0.117054 0.588471 1.000000
endloop
endfacet
facet normal 0.290283 0.956941 0.000000
outer loop
vertex -0.229610 -0.554328 2.000000
vertex -0.117054 -0.588472 2.000000
vertex -0.117054 -0.588472 1.000000
endloop
endfacet
facet normal 0.290283 0.956941 0.000000
outer loop
vertex -0.229610 -0.554328 2.000000
vertex -0.117054 -0.588472 1.000000
vertex -0.229610 -0.554328 1.000000
endloop
endfacet
facet normal -0.773011 -0.634393 0.000000
outer loop
vertex 0.498881 0.333343 2.000000
vertex 0.424263 0.424264 2.000000
vertex 0.424263 0.424264 1.000000
endloop
endfacet
facet normal -0.773011 -0.634393 0.000000
outer loop
vertex 0.498881 0.333343 2.000000
vertex 0.424263 0.424264 1.000000
vertex 0.498881 0.333343 1.000000
endloop
endfacet
facet normal 0.098019 -0.995185 0.000000
outer loop
vertex 0.000000 0.600000 2.000000
vertex -0.117054 0.588471 2.000000
vertex -0.117054 0.588471 1.000000
endloop
endfacet
facet normal 0.098019 -0.995185 0.000000
outer loop
vertex 0.000000 0.600000 2.000000
vertex -0.117054 0.588471 1.000000
vertex 0.000000 0.600000 1.000000
endloop
endfacet
facet normal 0.471401 0.881919 0.000000
outer loop
vertex -0.333342 -0.498882 2.000000
vertex -0.229610 -0.554328 2.000000
vertex -0.229610 -0.554328 1.000000
endloop
endfacet
facet normal 0.471401 0.881919 0.000000
outer loop
vertex -0.333342 -0.498882 2.000000
vertex -0.229610 -0.554328 1.000000
vertex -0.333342 -0.498882 1.000000
endloop
endfacet
facet normal -0.881921 -0.471398 0.000000
outer loop
vertex 0.554327 0.229611 2.000000
vertex 0.498881 0.333343 2.000000
vertex 0.498881 0.333343 1.000000
endloop
endfacet
facet normal -0.881921 -0.471397 0.000000
outer loop
vertex 0.554327 0.229611 2.000000
vertex 0.498881 0.333343 1.000000
vertex 0.554327 0.229611 1.000000
endloop
endfacet
facet normal 0.634393 0.773011 0.000000
outer loop
vertex -0.424264 -0.424264 2.000000
vertex -0.333342 -0.498882 2.000000
vertex -0.333342 -0.498882 1.000000
endloop
endfacet
facet normal 0.634393 0.773011 0.000000
outer loop
vertex -0.424264 -0.424264 2.000000
vertex -0.333342 -0.498882 1.000000
vertex -0.424264 -0.424264 1.000000
endloop
endfacet
facet normal -0.956940 -0.290286 0.000000
outer loop
vertex 0.588471 0.117054 2.000000
vertex 0.554327 0.229611 2.000000
vertex 0.554327 0.229611 1.000000
endloop
endfacet
facet normal -0.956940 -0.290287 0.000000
outer loop
vertex 0.588471 0.117054 2.000000
vertex 0.554327 0.229611 1.000000
vertex 0.588471 0.117054 1.000000
endloop
endfacet
facet normal 0.773007 0.634398 0.000000
outer loop
vertex -0.498883 -0.333342 2.000000
vertex -0.424264 -0.424264 2.000000
vertex -0.424264 -0.424264 1.000000
endloop
endfacet
facet normal 0.773007 0.634397 0.000000
outer loop
vertex -0.498883 -0.333342 2.000000
vertex -0.424264 -0.424264 1.000000
vertex -0.498883 -0.333342 1.000000
endloop
endfacet
facet normal -0.995184 -0.098025 0.000000
outer loop
vertex 0.600000 0.000001 2.000000
vertex 0.588471 0.117054 2.000000
vertex 0.588471 0.117054 1.000000
endloop
endfacet
facet normal -0.995184 -0.098025 0.000000
outer loop
vertex 0.600000 0.000001 2.000000
vertex 0.588471 0.117054 1.000000
vertex 0.600000 0.000001 1.000000
endloop
endfacet
facet normal 0.881924 0.471391 0.000000
outer loop
vertex -0.554328 -0.229610 2.000000
vertex -0.498883 -0.333342 2.000000
vertex -0.498883 -0.333342 1.000000
endloop
endfacet
facet normal 0.881924 0.471391 0.000000
outer loop
vertex -0.554328 -0.229610 2.000000
vertex -0.498883 -0.333342 1.000000
vertex -0.554328 -0.229610 1.000000
endloop
endfacet
facet normal -0.995185 0.098013 0.000000
outer loop
vertex 0.588472 -0.117054 2.000000
vertex 0.600000 0.000001 2.000000
vertex 0.600000 0.000001 1.000000
endloop
endfacet
facet normal -0.995185 0.098014 0.000000
outer loop
vertex 0.588472 -0.117054 2.000000
vertex 0.600000 0.000001 1.000000
vertex 0.588472 -0.117054 1.000000
endloop
endfacet
facet normal 0.956939 0.290288 0.000000
outer loop
vertex -0.588472 -0.117054 2.000000
vertex -0.554328 -0.229610 2.000000
vertex -0.554328 -0.229610 1.000000
endloop
endfacet
facet normal 0.956939 0.290288 0.000000
outer loop
vertex -0.588472 -0.117054 2.000000
vertex -0.554328 -0.229610 1.000000
vertex -0.588472 -0.117054 1.000000
endloop
endfacet
facet normal -0.956939 0.290289 0.000000
outer loop
vertex 0.554328 -0.229609 2.000000
vertex 0.588472 -0.117054 2.000000
vertex 0.588472 -0.117054 1.000000
endloop
endfacet
facet normal -0.956939 0.290290 0.000000
outer loop
vertex 0.554328 -0.229609 2.000000
vertex 0.588472 -0.117054 1.000000
vertex 0.554328 -0.229609 1.000000
endloop
endfacet
facet normal 0.000000 0.000000 1.000000
outer loop
vertex 0.588472 -0.117054 1.000000
vertex 0.600000 0.000001 1.000000
vertex 0.499999 0.000001 1.000000
endloop
endfacet
facet normal 0.000002 0.000000 1.000000
outer loop
vertex 0.588472 -0.117054 1.000000
vertex 0.499999 0.000001 1.000000
vertex 0.490393 -0.097545 1.000000
endloop
endfacet
facet normal 0.000006 0.000000 1.000000
outer loop
vertex 0.498882 -0.333342 1.000000
vertex 0.554328 -0.229609 1.000000
vertex 0.588472 -0.117054 1.000000
endloop
endfacet
facet normal -0.000006 0.000000 1.000000
outer loop
vertex 0.333342 -0.498882 1.000000
vertex 0.424265 -0.424264 1.000000
vertex 0.498882 -0.333342 1.000000
endloop
endfacet
facet normal 0.000000 0.000000 1.000000
outer loop
vertex 0.117055 -0.588472 1.000000
vertex 0.229610 -0.554327 1.000000
vertex 0.333342 -0.498882 1.000000
endloop
endfacet
facet normal 0.000000 0.000000 1.000000
outer loop
vertex -0.117054 -0.588472 1.000000
vertex 0.000000 -0.600000 1.000000
vertex 0.117055 -0.588472 1.000000
endloop
endfacet
facet normal 0.000000 0.000000 1.000000
outer loop
vertex -0.333342 -0.498882 1.000000
vertex -0.229610 -0.554328 1.000000
vertex -0.117054 -0.588472 1.000000
endloop
endfacet
facet normal 0.000006 0.000000 1.000000
outer loop
vertex -0.498883 -0.333342 1.000000
vertex -0.424264 -0.424264 1.000000
vertex -0.333342 -0.498882 1.000000
endloop
endfacet
facet normal -0.000006 0.000000 1.000000
outer loop
vertex -0.588472 -0.117054 1.000000
vertex -0.554328 -0.229610 1.000000
vertex -0.498883 -0.333342 1.000000
endloop
endfacet
facet normal 0.000000 0.000000 1.000000
outer loop
vertex -0.500000 -0.000000 1.000000
vertex -0.600000 -0.000000 1.000000
vertex -0.588472 -0.117054 1.000000
endloop
endfacet
facet normal 0.000000 0.000000 1.000000
outer loop
vertex -0.490393 -0.097545 1.000000
vertex -0.500000 -0.000000 1.000000
vertex -0.588472 -0.117054 1.000000
endloop
endfacet
facet normal 0.000000 0.000000 1.000000
outer loop
vertex -0.588472 -0.117054 1.000000
vertex -0.498883 -0.333342 1.000000
vertex -0.333342 -0.498882 1.000000
endloop
endfacet
facet normal 0.000000 0.000000 1.000000
outer loop
vertex -0.333342 -0.498882 1.000000
vertex -0.117054 -0.588472 1.000000
vertex 0.117055 -0.588472 1.000000
endloop
endfacet
facet normal 0.000001 0.000000 1.000000
outer loop
vertex 0.117055 -0.588472 1.000000
vertex 0.333342 -0.498882 1.000000
vertex 0.498882 -0.333342 1.000000
endloop
endfacet
facet normal -0.000001 0.000000 1.000000
outer loop
vertex 0.498882 -0.333342 1.000000
vertex 0.588472 -0.117054 1.000000
vertex 0.490393 -0.097545 1.000000
endloop
endfacet
facet normal 0.000002 0.000000 1.000000
outer loop
vertex 0.498882 -0.333342 1.000000
vertex 0.490393 -0.097545 1.000000
vertex 0.461939 -0.191341 1.000000
endloop
endfacet
facet normal 0.000001 0.000000 1.000000
outer loop
vertex -0.461940 -0.191342 1.000000
vertex -0.490393 -0.097545 1.000000
vertex -0.588472 -0.117054 1.000000
endloop
endfacet
facet normal -0.000002 0.000000 1.000000
outer loop
vertex -0.415735 -0.277786 1.000000
vertex -0.461940 -0.191342 1.000000
vertex -0.588472 -0.117054 1.000000
endloop
endfacet
facet normal -0.000002 0.000000 1.000000
outer loop
vertex 0.498882 -0.333342 1.000000
vertex 0.461939 -0.191341 1.000000
vertex 0.415734 -0.277785 1.000000
endloop
endfacet
facet normal 0.000002 0.000000 1.000000
outer loop
vertex 0.498882 -0.333342 1.000000
vertex 0.415734 -0.277785 1.000000
vertex 0.353553 -0.353553 1.000000
endloop
endfacet
facet normal 0.000002 0.000000 1.000000
outer loop
vertex -0.415735 -0.277786 1.000000
vertex -0.588472 -0.117054 1.000000
vertex -0.333342 -0.498882 1.000000
endloop
endfacet
facet normal -0.000004 0.000000 1.000000
outer loop
vertex -0.353554 -0.353553 1.000000
vertex -0.415735 -0.277786 1.000000
vertex -0.333342 -0.498882 1.000000
endloop
endfacet
facet normal -0.000000 0.000000 1.000000
outer loop
vertex 0.117055 -0.588472 1.000000
vertex 0.498882 -0.333342 1.000000
vertex 0.353553 -0.353553 1.000000
endloop
endfacet
facet normal 0.000000 0.000000 1.000000
outer loop
vertex 0.117055 -0.588472 1.000000
vertex 0.353553 -0.353553 1.000000
vertex 0.277785 -0.415735 1.000000
endloop
endfacet
facet normal 0.000000 0.000000 1.000000
outer loop
vertex -0.277785 -0.415735 1.000000
vertex -0.353554 -0.353553 1.000000
vertex -0.333342 -0.498882 1.000000
endloop
endfacet
facet normal -0.000002 0.000000 1.000000
outer loop
vertex -0.191342 -0.461940 1.000000
vertex -0.277785 -0.415735 1.000000
vertex -0.333342 -0.498882 1.000000
endloop
endfacet
facet normal 0.000001 0.000000 1.000000
outer loop
vertex 0.117055 -0.588472 1.000000
vertex 0.277785 -0.415735 1.000000
vertex 0.191341 -0.461940 1.000000
endloop
endfacet
facet normal 0.000000 0.000000 1.000000
outer loop
vertex 0.117055 -0.588472 1.000000
vertex 0.191341 -0.461940 1.000000
vertex 0.097545 -0.490393 1.000000
endloop
endfacet
facet normal 0.000000 0.000000 1.000000
outer loop
vertex -0.191342 -0.461940 1.000000
vertex -0.333342 -0.498882 1.000000
vertex 0.117055 -0.588472 1.000000
endloop
endfacet
facet normal 0.000000 0.000000 1.000000
outer loop
vertex -0.097546 -0.490393 1.000000
vertex -0.191342 -0.461940 1.000000
vertex 0.117055 -0.588472 1.000000
endloop
endfacet
facet normal -0.000000 0.000000 1.000000
outer loop
vertex 0.117055 -0.588472 1.000000
vertex 0.097545 -0.490393 1.000000
vertex -0.000000 -0.500000 1.000000
endloop
endfacet
facet normal 0.000000 0.000000 1.000000
outer loop
vertex -0.000000 -0.500000 1.000000
vertex -0.097546 -0.490393 1.000000
vertex 0.117055 -0.588472 1.000000
endloop
endfacet
facet normal -0.634396 -0.773009 0.000000
outer loop
vertex -0.353554 -0.353553 1.000000
vertex -0.277785 -0.415735 1.000000
vertex -0.277785 -0.415735 1.999999
endloop
endfacet
facet normal -0.634396 -0.773009 0.000000
outer loop
vertex -0.353554 -0.353553 1.000000
vertex -0.277785 -0.415735 1.999999
vertex -0.353554 -0.353553 1.999999
endloop
endfacet
facet normal 0.956939 0.290288 -0.000000
outer loop
vertex 0.490393 0.097546 1.000000
vertex 0.461939 0.191342 1.000000
vertex 0.461939 0.191342 1.999999
endloop
endfacet
facet normal 0.956939 0.290289 -0.000000
outer loop
vertex 0.490393 0.097546 1.000000
vertex 0.461939 0.191342 1.999999
vertex 0.490393 0.097546 1.999999
endloop
endfacet
facet normal -0.773006 -0.634399 0.000000
outer loop
vertex -0.415735 -0.277786 1.000000
vertex -0.353554 -0.353553 1.000000
vertex -0.353554 -0.353553 1.999999
endloop
endfacet
facet normal -0.773006 -0.634398 0.000000
outer loop
vertex -0.415735 -0.277786 1.000000
vertex -0.353554 -0.353553 1.999999
vertex -0.415735 -0.277786 1.999999
endloop
endfacet
facet normal 0.995185 0.098012 -0.000000
outer loop
vertex 0.499999 0.000001 1.000000
vertex 0.490393 0.097546 1.000000
vertex 0.490393 0.097546 1.999999
endloop
endfacet
facet normal 0.995185 0.098011 -0.000000
outer loop
vertex 0.499999 0.000001 1.000000
vertex 0.490393 0.097546 1.999999
vertex 0.499999 0.000001 1.999999
endloop
endfacet
facet normal -0.881924 -0.471391 0.000000
outer loop
vertex -0.461940 -0.191342 1.000000
vertex -0.415735 -0.277786 1.000000
vertex -0.415735 -0.277786 1.999999
endloop
endfacet
facet normal -0.881924 -0.471391 0.000000
outer loop
vertex -0.461940 -0.191342 1.000000
vertex -0.415735 -0.277786 1.999999
vertex -0.461940 -0.191342 1.999999
endloop
endfacet
facet normal 0.995185 -0.098009 -0.000000
outer loop
vertex 0.490393 -0.097545 1.000000
vertex 0.499999 0.000001 1.000000
vertex 0.499999 0.000001 1.999999
endloop
endfacet
facet normal 0.995185 -0.098010 -0.000000
outer loop
vertex 0.490393 -0.097545 1.000000
vertex 0.499999 0.000001 1.999999
vertex 0.490393 -0.097545 1.999999
endloop
endfacet
facet normal -0.956939 -0.290288 0.000000
outer loop
vertex -0.490393 -0.097545 1.000000
vertex -0.461940 -0.191342 1.000000
vertex -0.461940 -0.191342 1.999999
endloop
endfacet
facet normal -0.956939 -0.290289 0.000000
outer loop
vertex -0.490393 -0.097545 1.000000
vertex -0.461940 -0.191342 1.999999
vertex -0.490393 -0.097545 1.999999
endloop
endfacet
facet normal 0.956940 -0.290287 -0.000000
outer loop
vertex 0.461939 -0.191341 1.000000
vertex 0.490393 -0.097545 1.000000
vertex 0.490393 -0.097545 1.999999
endloop
endfacet
facet normal 0.956939 -0.290288 -0.000000
outer loop
vertex 0.461939 -0.191341 1.000000
vertex 0.490393 -0.097545 1.999999
vertex 0.461939 -0.191341 1.999999
endloop
endfacet
facet normal -0.995185 -0.098012 0.000000
outer loop
vertex -0.500000 -0.000000 1.000000
vertex -0.490393 -0.097545 1.000000
vertex -0.490393 -0.097545 1.999999
endloop
endfacet
facet normal -0.995185 -0.098012 0.000000
outer loop
vertex -0.500000 -0.000000 1.000000
vertex -0.490393 -0.097545 1.999999
vertex -0.500000 -0.000000 1.999999
endloop
endfacet
facet normal 0.881921 -0.471398 -0.000000
outer loop
vertex 0.415734 -0.277785 1.000000
vertex 0.461939 -0.191341 1.000000
vertex 0.461939 -0.191341 1.999999
endloop
endfacet
facet normal 0.881921 -0.471398 -0.000000
outer loop
vertex 0.415734 -0.277785 1.000000
vertex 0.461939 -0.191341 1.999999
vertex 0.415734 -0.277785 1.999999
endloop
endfacet
facet normal -0.995185 0.098011 0.000000
outer loop
vertex -0.490393 0.097545 1.000000
vertex -0.500000 -0.000000 1.000000
vertex -0.500000 -0.000000 1.999999
endloop
endfacet
facet normal -0.995185 0.098011 0.000000
outer loop
vertex -0.490393 0.097545 1.000000
vertex -0.500000 -0.000000 1.999999
vertex -0.490393 0.097545 1.999999
endloop
endfacet
facet normal 0.773012 -0.634391 -0.000000
outer loop
vertex 0.353553 -0.353553 1.000000
vertex 0.415734 -0.277785 1.000000
vertex 0.415734 -0.277785 1.999999
endloop
endfacet
facet normal 0.773012 -0.634391 -0.000000
outer loop
vertex 0.353553 -0.353553 1.000000
vertex 0.415734 -0.277785 1.999999
vertex 0.353553 -0.353553 1.999999
endloop
endfacet
facet normal -0.956939 0.290290 0.000000
outer loop
vertex -0.461940 0.191341 1.000000
vertex -0.490393 0.097545 1.000000
vertex -0.490393 0.097545 1.999999
endloop
endfacet
facet normal -0.956939 0.290289 0.000000
outer loop
vertex -0.461940 0.191341 1.000000
vertex -0.490393 0.097545 1.999999
vertex -0.461940 0.191341 1.999999
endloop
endfacet
facet normal 0.634399 -0.773006 -0.000000
outer loop
vertex 0.277785 -0.415735 1.000000
vertex 0.353553 -0.353553 1.000000
vertex 0.353553 -0.353553 1.999999
endloop
endfacet
facet normal 0.634399 -0.773006 -0.000000
outer loop
vertex 0.277785 -0.415735 1.000000
vertex 0.353553 -0.353553 1.999999
vertex 0.277786 -0.415735 1.999999
endloop
endfacet
facet normal -0.881923 0.471393 0.000000
outer loop
vertex -0.415735 0.277785 1.000000
vertex -0.461940 0.191341 1.000000
vertex -0.461940 0.191341 1.999999
endloop
endfacet
facet normal -0.881923 0.471393 0.000000
outer loop
vertex -0.415735 0.277785 1.000000
vertex -0.461940 0.191341 1.999999
vertex -0.415735 0.277785 1.999999
endloop
endfacet
facet normal 0.471392 -0.881924 -0.000000
outer loop
vertex 0.191341 -0.461940 1.000000
vertex 0.277785 -0.415735 1.000000
vertex 0.277786 -0.415735 1.999999
endloop
endfacet
facet normal 0.471393 -0.881924 0.000000
outer loop
vertex 0.191341 -0.461940 1.000000
vertex 0.277786 -0.415735 1.999999
vertex 0.191341 -0.461940 1.999999
endloop
endfacet
facet normal 0.098019 0.995185 -0.000000
outer loop
vertex 0.097544 0.490393 1.000000
vertex 0.000000 0.500000 1.000000
vertex 0.000000 0.500000 1.999999
endloop
endfacet
facet normal 0.098019 0.995185 0.000000
outer loop
vertex 0.097544 0.490393 1.000000
vertex 0.000000 0.500000 1.999999
vertex 0.097544 0.490393 1.999999
endloop
endfacet
facet normal -0.773010 0.634393 0.000000
outer loop
vertex -0.353554 0.353553 1.000000
vertex -0.415735 0.277785 1.000000
vertex -0.415735 0.277785 1.999999
endloop
endfacet
facet normal -0.773010 0.634394 0.000000
outer loop
vertex -0.353554 0.353553 1.000000
vertex -0.415735 0.277785 1.999999
vertex -0.353554 0.353553 1.999999
endloop
endfacet
facet normal 0.290287 -0.956940 0.000000
outer loop
vertex 0.097545 -0.490393 1.000000
vertex 0.191341 -0.461940 1.000000
vertex 0.191341 -0.461940 1.999999
endloop
endfacet
facet normal 0.290287 -0.956940 -0.000000
outer loop
vertex 0.097545 -0.490393 1.000000
vertex 0.191341 -0.461940 1.999999
vertex 0.097545 -0.490393 1.999999
endloop
endfacet
facet normal 0.290276 0.956943 0.000000
outer loop
vertex 0.191341 0.461941 1.000000
vertex 0.097544 0.490393 1.000000
vertex 0.097544 0.490393 1.999999
endloop
endfacet
facet normal 0.290276 0.956943 0.000000
outer loop
vertex 0.191341 0.461941 1.000000
vertex 0.097544 0.490393 1.999999
vertex 0.191341 0.461941 1.999999
endloop
endfacet
facet normal -0.634391 0.773012 0.000000
outer loop
vertex -0.277785 0.415734 1.000000
vertex -0.353554 0.353553 1.000000
vertex -0.353554 0.353553 1.999999
endloop
endfacet
facet normal -0.634391 0.773012 0.000000
outer loop
vertex -0.277785 0.415734 1.000000
vertex -0.353554 0.353553 1.999999
vertex -0.277785 0.415734 1.999999
endloop
endfacet
facet normal 0.098019 -0.995185 -0.000000
outer loop
vertex -0.000000 -0.500000 1.000000
vertex 0.097545 -0.490393 1.000000
vertex 0.097545 -0.490393 1.999999
endloop
endfacet
facet normal 0.098019 -0.995185 0.000000
outer loop
vertex -0.000000 -0.500000 1.000000
vertex 0.097545 -0.490393 1.999999
vertex 0.000000 -0.500000 1.999999
endloop
endfacet
facet normal 0.471400 0.881920 -0.000000
outer loop
vertex 0.277784 0.415735 1.000000
vertex 0.191341 0.461941 1.000000
vertex 0.191341 0.461941 1.999999
endloop
endfacet
facet normal 0.471400 0.881920 0.000000
outer loop
vertex 0.277784 0.415735 1.000000
vertex 0.191341 0.461941 1.999999
vertex 0.277784 0.415735 1.999999
endloop
endfacet
facet normal -0.471399 0.881920 -0.000000
outer loop
vertex -0.191343 0.461939 1.000000
vertex -0.277785 0.415734 1.000000
vertex -0.277785 0.415734 1.999999
endloop
endfacet
facet normal -0.471400 0.881920 0.000000
outer loop
vertex -0.191343 0.461939 1.000000
vertex -0.277785 0.415734 1.999999
vertex -0.191342 0.461939 1.999999
endloop
endfacet
facet normal -0.098018 -0.995185 0.000000
outer loop
vertex -0.097546 -0.490393 1.000000
vertex -0.000000 -0.500000 1.000000
vertex 0.000000 -0.500000 1.999999
endloop
endfacet
facet normal -0.098018 -0.995185 -0.000000
outer loop
vertex -0.097546 -0.490393 1.000000
vertex 0.000000 -0.500000 1.999999
vertex -0.097546 -0.490393 1.999999
endloop
endfacet
facet normal 0.634395 0.773009 -0.000000
outer loop
vertex 0.353553 0.353553 1.000000
vertex 0.277784 0.415735 1.000000
vertex 0.277784 0.415735 1.999999
endloop
endfacet
facet normal 0.634395 0.773009 0.000000
outer loop
vertex 0.353553 0.353553 1.000000
vertex 0.277784 0.415735 1.999999
vertex 0.353553 0.353553 1.999999
endloop
endfacet
facet normal -0.290288 0.956939 -0.000000
outer loop
vertex -0.097546 0.490393 1.000000
vertex -0.191343 0.461939 1.000000
vertex -0.191342 0.461939 1.999999
endloop
endfacet
facet normal -0.290288 0.956939 0.000000
outer loop
vertex -0.097546 0.490393 1.000000
vertex -0.191342 0.461939 1.999999
vertex -0.097546 0.490393 1.999999
endloop
endfacet
facet normal -0.290285 -0.956940 -0.000000
outer loop
vertex -0.191342 -0.461940 1.000000
vertex -0.097546 -0.490393 1.000000
vertex -0.097546 -0.490393 1.999999
endloop
endfacet
facet normal -0.290285 -0.956940 0.000000
outer loop
vertex -0.191342 -0.461940 1.000000
vertex -0.097546 -0.490393 1.999999
vertex -0.191342 -0.461940 1.999999
endloop
endfacet
facet normal 0.773009 0.634396 -0.000000
outer loop
vertex 0.415734 0.277786 1.000000
vertex 0.353553 0.353553 1.000000
vertex 0.353553 0.353553 1.999999
endloop
endfacet
facet normal 0.773009 0.634395 -0.000000
outer loop
vertex 0.415734 0.277786 1.000000
vertex 0.353553 0.353553 1.999999
vertex 0.415734 0.277786 1.999999
endloop
endfacet
facet normal -0.098018 0.995185 0.000000
outer loop
vertex 0.000000 0.500000 1.000000
vertex -0.097546 0.490393 1.000000
vertex -0.097546 0.490393 1.999999
endloop
endfacet
facet normal -0.098018 0.995185 0.000000
outer loop
vertex 0.000000 0.500000 1.000000
vertex -0.097546 0.490393 1.999999
vertex 0.000000 0.500000 1.999999
endloop
endfacet
facet normal -0.471397 -0.881921 0.000000
outer loop
vertex -0.277785 -0.415735 1.000000
vertex -0.191342 -0.461940 1.000000
vertex -0.191342 -0.461940 1.999999
endloop
endfacet
facet normal -0.471397 -0.881921 0.000000
outer loop
vertex -0.277785 -0.415735 1.000000
vertex -0.191342 -0.461940 1.999999
vertex -0.277785 -0.415735 1.999999
endloop
endfacet
facet normal 0.881922 0.471395 -0.000000
outer loop
vertex 0.461939 0.191342 1.000000
vertex 0.415734 0.277786 1.000000
vertex 0.415734 0.277786 1.999999
endloop
endfacet
facet normal 0.881922 0.471396 -0.000000
outer loop
vertex 0.461939 0.191342 1.000000
vertex 0.415734 0.277786 1.999999
vertex 0.461939 0.191342 1.999999
endloop
endfacet
endsolid
